<?xml version="1.0" encoding="utf-8"?>
<!-- Generator: Adobe Illustrator 19.1.0, SVG Export Plug-In . SVG Version: 6.00 Build 0)  -->
<svg version="1.1" id="Ebene_1" xmlns="http://www.w3.org/2000/svg" xmlns:xlink="http://www.w3.org/1999/xlink" x="0px" y="0px"
	 viewBox="0 0 20 20" style="enable-background:new 0 0 20 20;" xml:space="preserve">
<style type="text/css">
	.st0{fill:#FFFFFF;}
</style>
<g id="Funktionen">
	<g id="opta-data-funktionen" transform="translate(-754.000000, -2078.000000)">
		<path id="Fill-15" class="st0" d="M765.6,2083.3v1.5c1.7,0.7,2.9,2.3,2.9,4.2c0,2.5-2,4.5-4.5,4.5s-4.5-2-4.5-4.5
			c0-1.9,1.2-3.5,2.9-4.2v-1.5c-2.5,0.7-4.3,3-4.3,5.8c0,3.3,2.7,6,6,6c3.3,0,6-2.7,6-6C769.9,2086.4,768.1,2084.1,765.6,2083.3
			 M763.9,2087.5c-0.4,0-0.7-0.3-0.7-0.7v-5.9c0-0.4,0.3-0.7,0.7-0.7s0.7,0.3,0.7,0.7v5.9C764.7,2087.2,764.3,2087.5,763.9,2087.5"
			/>
	</g>
</g>
</svg>
